<?xml version="1.0" encoding="UTF-8" standalone="no"?>
<!-- Created with Inkscape (http://www.inkscape.org/) -->

<svg
   xmlns:dc="http://purl.org/dc/elements/1.1/"
   xmlns:cc="http://creativecommons.org/ns#"
   xmlns:rdf="http://www.w3.org/1999/02/22-rdf-syntax-ns#"
   xmlns:svg="http://www.w3.org/2000/svg"
   xmlns="http://www.w3.org/2000/svg"
   xmlns:sodipodi="http://sodipodi.sourceforge.net/DTD/sodipodi-0.dtd"
   xmlns:inkscape="http://www.inkscape.org/namespaces/inkscape"
   width="185.21025mm"
   height="19.777142mm"
   viewBox="0 0 185.21025 19.777142"
   version="1.1"
   id="svg8"
   inkscape:version="0.92.1 r15371"
   sodipodi:docname="sprite_offer.svg">
  <defs
     id="defs2" />
  <sodipodi:namedview
     id="base"
     pagecolor="#ffffff"
     bordercolor="#666666"
     borderopacity="1.0"
     inkscape:pageopacity="0.0"
     inkscape:pageshadow="2"
     inkscape:zoom="1.4"
     inkscape:cx="167.56729"
     inkscape:cy="80.271134"
     inkscape:document-units="mm"
     inkscape:current-layer="layer1"
     showgrid="false"
     fit-margin-top="0"
     fit-margin-left="0"
     fit-margin-right="0"
     fit-margin-bottom="0"
     inkscape:window-width="1858"
     inkscape:window-height="1057"
     inkscape:window-x="54"
     inkscape:window-y="-8"
     inkscape:window-maximized="1" />
  <metadata
     id="metadata5">
    <rdf:RDF>
      <cc:Work
         rdf:about="">
        <dc:format>image/svg+xml</dc:format>
        <dc:type
           rdf:resource="http://purl.org/dc/dcmitype/StillImage" />
        <dc:title></dc:title>
      </cc:Work>
    </rdf:RDF>
  </metadata>
  <g
     inkscape:label="Layer 1"
     inkscape:groupmode="layer"
     id="layer1"
     transform="translate(-15.117131,-169.55001)">
    <path
       style="fill:#20b6a5;stroke-width:0.35277778"
       d="m 160.11072,186.66894 c 0,-2.69299 -0.60982,-4.39731 -1.5734,-4.39731 -0.58798,0 -1.6016,-1.16239 -1.6016,-1.83667 0,-0.30051 -0.21695,-0.72644 -0.48212,-0.9465 -0.61292,-0.50868 -0.58102,-4.40914 0.0411,-5.03105 0.24254,-0.24243 0.44098,-0.72287 0.44098,-1.06765 0,-0.34478 0.43656,-0.90558 0.97014,-1.24623 0.53357,-0.34065 1.17757,-0.89993 1.43111,-1.24286 0.25354,-0.34292 0.84138,-0.62349 1.30632,-0.62349 0.46493,0 1.26145,-0.18959 1.77002,-0.42131 0.71674,-0.32657 1.0764,-0.32657 1.59931,0 0.37105,0.23172 1.14745,0.42131 1.72534,0.42131 0.68966,0 1.18046,0.24245 1.42831,0.70556 0.20768,0.38805 0.58554,0.70555 0.83968,0.70555 0.60021,0 1.62977,1.14298 1.62977,1.80931 0,0.28546 0.19843,0.71738 0.44097,0.95981 0.62217,0.62191 0.65406,4.52237 0.0411,5.03105 -0.26516,0.22006 -0.48211,0.67357 -0.48211,1.0078 0,0.60771 -1.03679,1.77537 -1.57639,1.77537 -0.80441,0 -1.22407,1.40896 -1.23462,4.14514 -0.0122,3.17327 -0.0155,3.17699 -2.12788,2.40618 -1.01305,-0.36967 -1.4802,-0.36485 -2.602,0.0268 -0.75199,0.26257 -1.50606,0.4774 -1.67569,0.4774 -0.16963,0 -0.30842,-1.19621 -0.30842,-2.65824 z m 3.35139,1.12827 c 0.38805,0 1.14211,0.12333 1.67569,0.27406 l 0.97014,0.27407 v -2.13409 c 0,-1.17375 -0.16833,-2.23813 -0.37407,-2.36528 -0.20574,-0.12716 -0.84871,-0.0346 -1.42882,0.2057 -0.84177,0.34867 -1.22247,0.34713 -1.88535,-0.008 -1.24725,-0.66751 -1.60343,-0.1861 -1.60343,2.16721 v 2.13409 l 0.97014,-0.27407 c 0.53358,-0.15073 1.28764,-0.27406 1.6757,-0.27406 z m 0.70555,-4.46725 c 0.11992,-0.19403 0.67702,-0.35278 1.23801,-0.35278 0.56102,0 1.15977,-0.24977 1.33063,-0.55508 0.17085,-0.3053 0.69468,-0.74648 1.16405,-0.98041 0.49759,-0.24799 0.87041,-0.75809 0.89415,-1.2234 0.0224,-0.43894 0.3399,-1.01996 0.70556,-1.29116 0.5685,-0.42165 0.59976,-0.5996 0.21579,-1.22825 -0.34454,-0.56409 -0.35467,-0.9115 -0.0435,-1.49287 0.33367,-0.62347 0.29349,-0.8396 -0.2268,-1.22005 -0.34777,-0.25429 -0.65821,-0.82248 -0.68987,-1.26265 -0.0321,-0.44682 -0.42221,-0.98362 -0.88314,-1.21535 -0.45406,-0.22828 -0.96536,-0.66484 -1.13621,-0.97014 -0.1832,-0.32736 -0.78105,-0.55508 -1.45728,-0.55508 -0.63065,0 -1.32376,-0.17712 -1.54024,-0.39361 -0.28962,-0.28962 -0.59388,-0.25332 -1.15171,0.1374 -0.41696,0.29205 -1.08908,0.44445 -1.4936,0.33866 -0.46944,-0.12276 -0.90292,0.0366 -1.19836,0.44069 -0.25458,0.34816 -0.82616,0.81407 -1.27016,1.03535 -0.45698,0.22775 -0.82496,0.74864 -0.84802,1.2004 -0.0224,0.43894 -0.3399,1.01996 -0.70555,1.29116 -0.56851,0.42165 -0.59977,0.5996 -0.21579,1.22825 0.3373,0.55224 0.35172,0.91699 0.058,1.46589 -0.31966,0.59728 -0.25378,0.87685 0.36081,1.53106 0.41354,0.44019 0.70496,1.00754 0.64759,1.26079 -0.0574,0.25324 0.27974,0.6602 0.74912,0.90434 0.46938,0.24414 0.9932,0.69368 1.16406,0.99898 0.18733,0.33474 0.78554,0.55508 1.50701,0.55508 0.658,0 1.29448,0.15875 1.4144,0.35278 0.11992,0.19403 0.43742,0.35278 0.70556,0.35278 0.26814,0 0.58564,-0.15875 0.70555,-0.35278 z m -3.36109,-2.36506 c -1.21145,-0.83496 -1.68069,-1.48651 -2.14885,-2.9837 -0.34833,-1.11399 -0.30143,-1.50357 0.34065,-2.82993 0.89982,-1.85879 2.30122,-2.75742 4.30014,-2.75742 2.09271,0 3.68087,1.07453 4.41001,2.98378 0.47889,1.25395 0.51451,1.76569 0.18929,2.71997 -0.79404,2.3299 -2.30802,3.46847 -4.61209,3.46847 -0.93748,0 -1.97027,-0.25044 -2.47915,-0.60117 z m 4.35442,-0.49845 c 1.35409,-0.69249 1.98959,-1.80612 1.98959,-3.48649 0,-2.37552 -1.49895,-3.88056 -3.86486,-3.88056 -3.00606,0 -4.78621,2.91801 -3.50097,5.7388 0.78401,1.7207 3.55465,2.55982 5.37624,1.62825 z m -2.74648,-2.76906 c -0.69129,-0.76388 -0.46866,-1.49285 0.23962,-0.78457 0.31812,0.31812 0.60461,0.23683 1.22745,-0.34829 1.23311,-1.15845 1.46255,-0.42183 0.24717,0.79355 l -1.06106,1.06106 z m -27.48189,9.11719 c -3.17821,-2.10516 -4.79429,-5.18819 -5.07458,-9.68089 -0.25944,-4.1584 -0.0935,-4.59459 1.84969,-4.86093 1.73876,-0.23832 4.01734,-1.26883 4.74548,-2.14618 0.25331,-0.30523 0.65981,-0.55495 0.90334,-0.55495 0.24353,0 0.65003,0.24972 0.90334,0.55495 0.72814,0.87735 3.00671,1.90786 4.74548,2.14618 1.94314,0.26634 2.10913,0.70253 1.84969,4.86093 -0.19112,3.0634 -0.9961,5.41247 -2.55524,7.45661 -1.06849,1.40085 -3.92959,3.32577 -4.94327,3.32577 -0.41854,0 -1.50931,-0.49567 -2.42393,-1.10149 z m 3.98758,-0.29745 c 3.24967,-1.65786 5.31552,-5.84317 5.31552,-10.769 v -2.56861 l -1.5455,-0.23176 c -0.85002,-0.12747 -2.39783,-0.74372 -3.43958,-1.36944 l -1.89409,-1.13768 -1.9007,1.13867 c -1.04538,0.62627 -2.5932,1.24251 -3.43958,1.36944 l -1.53889,0.23077 v 2.56861 c 0,4.87219 2.04181,9.06183 5.23962,10.75136 1.61169,0.85151 1.56913,0.85128 3.2032,0.0176 z m -2.62198,-1.48123 c -1.26926,-0.70027 -2.69643,-2.20836 -3.45057,-3.64622 -0.56156,-1.07069 -0.74525,-2.08159 -0.76144,-4.1904 l -0.0213,-2.77929 1.62139,-0.41558 c 0.89176,-0.22857 2.06136,-0.76166 2.5991,-1.18465 0.98706,-0.77642 1.27302,-0.75117 2.39388,0.2114 0.33943,0.29149 1.3713,0.72322 2.29306,0.95941 l 1.67591,0.42942 -0.0202,2.77929 c -0.0218,2.99733 -0.52974,4.42432 -2.22495,6.25037 -0.89629,0.96547 -2.53316,2.00846 -3.11721,1.98625 -0.15516,-0.006 -0.59961,-0.1859 -0.98766,-0.4 z m 0.88194,-3.29344 v -2.64583 h -2.11667 c -2.33942,0 -2.54453,0.26596 -1.60552,2.08182 0.54576,1.05537 2.81557,3.20984 3.38169,3.20984 0.18855,0 0.3405,-1.18071 0.3405,-2.64583 z m 2.86731,1.0005 c 1.95557,-2.11054 1.81227,-2.77517 -0.18028,-0.83616 -1.08981,1.06052 -1.98147,2.0583 -1.98147,2.21727 0,0.45039 1.13898,-0.27729 2.16175,-1.38111 z m 0.98886,-3.59566 c -0.52005,-0.17336 -3.50339,2.76479 -3.50339,3.45031 0,0.30586 0.82833,-0.28619 1.9494,-1.39333 1.07217,-1.05885 1.77147,-1.98449 1.55399,-2.05698 z m -2.44506,0.83127 0.82855,-0.88194 h -0.94344 c -0.77115,0 -0.94344,0.16106 -0.94344,0.88194 0,0.48507 0.0517,0.88195 0.11489,0.88195 0.0632,0 0.48774,-0.39688 0.94344,-0.88195 z m -2.57443,-2.71504 c 1.08978,-1.05625 1.51773,-2.04746 0.88399,-2.04746 -0.15363,0 -0.98043,0.71438 -1.83734,1.5875 -1.23099,1.25429 -1.41653,1.5875 -0.88399,1.5875 0.37071,0 1.19751,-0.50739 1.83734,-1.12754 z m 1.16332,0.77476 c 0,-0.19402 -0.14938,-0.35277 -0.33196,-0.35277 -0.18257,0 -0.43007,0.15875 -0.54998,0.35277 -0.11992,0.19403 0.0294,0.35278 0.33195,0.35278 0.3025,0 0.54999,-0.15875 0.54999,-0.35278 z m 4.93417,-1.32291 -0.005,-1.6757 -1.67098,-0.56041 c -0.91902,-0.30823 -1.94877,-0.6824 -2.28832,-0.83149 -0.55548,-0.24391 -0.61736,-0.0198 -0.61736,2.2361 v 2.50719 h 2.29305 2.29306 l -0.005,-1.67569 z m -7.05084,-0.97014 c 1.24997,-1.26118 2.06932,-2.29306 1.82078,-2.29306 -0.61927,0 -4.29022,3.51513 -4.29022,4.10812 0,0.2629 0.0443,0.47799 0.0984,0.47799 0.0541,0 1.12108,-1.03187 2.37105,-2.29305 z m -1.76388,-0.35278 c 0.35968,-0.43339 0.33557,-0.52917 -0.1332,-0.52917 -0.3148,0 -0.57236,0.23813 -0.57236,0.52917 0,0.29104 0.0599,0.52917 0.13319,0.52917 0.0733,0 0.33082,-0.23813 0.57237,-0.52917 z m 56.16222,12.10028 c -1.10154,-1.10154 -0.17096,-2.39889 1.72069,-2.39889 0.72284,0 1.49184,0.23434 1.73653,0.52917 0.74808,0.90137 1.90812,0.5961 3.35139,-0.88195 1.22932,-1.25894 1.29545,-1.41111 0.61317,-1.41111 -1.06757,0 -1.49511,-1.0088 -1.49511,-3.52778 0,-2.71834 0.40756,-3.52778 1.77629,-3.52778 1.26912,0 1.34861,-0.6001 0.32157,-2.42747 -3.00323,-5.34353 -12.50251,-4.34975 -13.93028,1.45734 -0.22118,0.89962 -0.15972,0.97013 0.84565,0.97013 1.41065,0 1.81454,0.78523 1.81454,3.52778 0,2.83136 -0.38864,3.52778 -1.96872,3.52778 -1.88295,0 -2.97017,-1.26804 -2.97017,-3.46417 0,-1.12704 0.2232,-2.02632 0.63878,-2.57367 0.35133,-0.46273 0.83181,-1.50886 1.06773,-2.32473 1.15923,-4.00887 5.9631,-6.30325 10.52386,-5.02632 2.29446,0.64241 4.90252,3.17359 5.25348,5.09861 0.1415,0.77611 0.55177,1.78971 0.91171,2.25244 0.44115,0.56713 0.65444,1.42552 0.65444,2.63384 0,1.76328 -0.0427,1.83442 -2.6201,4.36214 -1.81404,1.77911 -2.88606,2.56964 -3.48458,2.56964 -0.47546,0 -1.06211,0.23812 -1.30365,0.52917 -0.52583,0.63359 -2.85807,0.70498 -3.45722,0.10583 z m 3.03728,-0.89958 c -0.086,-0.44662 -0.4577,-0.61737 -1.34395,-0.61737 -0.88624,0 -1.25794,0.17075 -1.34395,0.61737 -0.0978,0.50782 0.14066,0.61736 1.34395,0.61736 1.2033,0 1.44175,-0.10954 1.34395,-0.61736 z m -8.3995,-6.79098 c 0,-2.97211 -0.24648,-3.34703 -1.47153,-2.23838 -1.32017,1.19474 -0.55852,5.06061 0.99704,5.06061 0.35792,0 0.47449,-0.69331 0.47449,-2.82223 z m 1.41111,0 c 0,-1.33529 -0.15875,-2.52591 -0.35278,-2.64583 -0.22412,-0.13851 -0.35278,0.82642 -0.35278,2.64583 0,1.81941 0.12866,2.78435 0.35278,2.64584 0.19403,-0.11992 0.35278,-1.31054 0.35278,-2.64584 z m 11.19442,-1.4993 c -0.0743,-0.82462 -0.13505,-0.14993 -0.13505,1.4993 0,1.64924 0.0608,2.32393 0.13505,1.49931 0.0743,-0.82462 0.0743,-2.17399 0,-2.99861 z m 2.27155,3.73768 c 1.32017,-1.19473 0.55852,-5.0606 -0.99704,-5.0606 -0.35793,0 -0.47449,0.6933 -0.47449,2.82222 0,2.97212 0.24648,3.34704 1.47153,2.23838 z M 15.824599,186.6348 c 0,-0.12262 0.3098,-0.72421 0.688444,-1.33687 l 0.688443,-1.11393 -1.041221,-2.06423 c -1.373679,-2.72334 -1.389056,-4.74619 -0.05548,-7.29894 1.267616,-2.4265 3.494191,-3.88912 6.271022,-4.11939 2.041239,-0.16928 4.654217,0.56531 5.458646,1.53459 0.58582,0.70586 0.03185,0.63849 -1.602907,-0.19496 -4.321117,-2.20303 -9.860895,0.79126 -10.320889,5.57851 -0.422879,4.40099 2.730731,7.87744 7.145889,7.87744 4.748781,0 8.087327,-4.28886 6.911083,-8.87833 -0.253321,-0.9884 -0.368575,-1.88911 -0.25612,-2.00156 0.419225,-0.41923 1.048025,1.90622 1.076587,3.98148 0.02532,1.83968 -0.135413,2.4132 -1.120384,3.99768 l -1.149945,1.84988 0.747458,1.04971 c 0.411102,0.57734 0.637785,1.15938 0.50374,1.29342 -0.224558,0.22456 -0.898821,-0.48222 -1.566718,-1.64227 -0.221896,-0.3854 -0.550296,-0.33505 -1.725681,0.26458 -2.059495,1.05068 -5.104818,1.00811 -7.189823,-0.1005 l -1.581833,-0.84106 -0.642929,1.19384 c -0.570944,1.06018 -1.23738,1.5831 -1.23738,0.97091 z m 93.309731,-2.5493 c -2.44337,-1.16334 -5.49204,-4.18833 -6.53344,-6.48271 -1.25062,-2.7553 -0.75032,-4.6635 1.46306,-5.58032 1.10906,-0.45938 1.15794,-0.43862 2.48349,1.05509 1.41212,1.59126 1.66587,2.68738 0.91119,3.93602 -0.39425,0.6523 -0.29451,0.85741 0.94156,1.93621 1.24581,1.0873 1.44044,1.15422 1.96806,0.67673 0.84885,-0.7682 1.76718,-0.65514 3.35849,0.41349 2.3175,1.55629 2.51026,2.41517 0.90278,4.02264 -1.3352,1.3352 -2.72672,1.34098 -5.49519,0.0228 z m 5.27166,-0.48126 c 0.85184,-1.21617 0.66177,-1.93622 -0.76744,-2.90739 -1.52999,-1.03966 -2.09974,-1.10486 -2.94779,-0.33738 -0.76417,0.69156 -1.38291,0.39446 -3.3013,-1.58522 l -1.3921,-1.43656 0.77474,-0.72177 c 0.99,-0.92233 0.98378,-0.97659 -0.31413,-2.74146 -1.21196,-1.64802 -1.93439,-1.82671 -3.07796,-0.76131 -3.0318,2.82455 3.65748,11.19408 8.99751,11.25756 1.14095,0.0136 1.60491,-0.16175 2.02847,-0.76647 z m -59.406663,-0.43396 c -1.307261,-1.332 -1.472749,-1.65379 -1.088591,-2.11667 0.352936,-0.42526 0.359833,-0.65817 0.03122,-1.05413 -0.363799,-0.43835 -0.575974,-0.41427 -1.542504,0.17507 -1.518606,0.92596 -4.201781,0.91056 -5.728314,-0.0329 -1.641104,-1.01426 -2.762012,-3.45965 -2.529871,-5.5192 0.194362,-1.72437 0.960284,-2.98941 2.510867,-4.14709 1.441673,-1.07637 4.577049,-1.01433 6.170415,0.12208 2.343997,1.67178 3.115938,5.39713 1.598733,7.71539 -0.685137,1.04687 -0.321074,1.58432 0.892637,1.31774 0.814987,-0.179 1.17482,0.0145 2.259471,1.21509 1.473556,1.63105 1.577287,2.19711 0.584549,3.18984 -1.011276,1.01128 -1.429339,0.89676 -3.158606,-0.86524 z m 2.795986,0.34793 c 0.791129,-0.95325 0.183102,-1.30009 -0.676007,-0.38562 -0.645209,0.6868 -0.717208,0.90293 -0.300785,0.90293 0.301106,0 0.74066,-0.23279 0.976792,-0.51731 z m -1.214356,-2.63113 -0.890687,-0.89069 -0.776128,0.77613 -0.776126,0.77612 0.838588,0.89264 0.838588,0.89264 0.828227,-0.77808 0.828224,-0.77808 z m -4.044076,-1.45433 c 3.81411,-2.71589 1.905318,-9.15557 -2.713813,-9.15557 -3.089325,0 -5.066907,1.94074 -5.069372,4.97492 -0.0034,4.17578 4.438965,6.56194 7.783185,4.18065 z m -6.373392,-5.94921 c 0,-0.39133 2.041694,-2.14802 2.496513,-2.14802 0.17914,0 0.325709,0.15875 0.325709,0.35277 0,0.19403 -0.142088,0.35278 -0.31575,0.35278 -0.173662,0 -0.6896,0.39413 -1.146528,0.87585 -0.863946,0.91082 -1.359944,1.11748 -1.359944,0.56662 z m 141.993061,10.1992 c -0.35119,-0.38806 -0.47977,-0.70556 -0.28574,-0.70556 0.19403,0 0.64011,0.3175 0.9913,0.70556 0.35118,0.38805 0.47977,0.70555 0.28574,0.70555 -0.19403,0 -0.64011,-0.3175 -0.9913,-0.70555 z m 5.29167,0 c 0.35118,-0.38806 0.79727,-0.70556 0.9913,-0.70556 0.19402,0 0.0654,0.3175 -0.28575,0.70556 -0.35118,0.38805 -0.79727,0.70555 -0.9913,0.70555 -0.19402,0 -0.0654,-0.3175 0.28575,-0.70555 z M 20.054345,183.24177 c -2.003183,-1.36336 -2.642246,-2.53656 -2.642246,-4.8507 0,-2.23103 0.577694,-3.35856 2.428917,-4.7407 1.34364,-1.00317 5.183533,-1.04322 6.113345,-0.0637 0.609701,0.64225 0.601597,0.65432 -0.251984,0.37529 -0.485069,-0.15856 -1.79226,-0.29843 -2.904868,-0.31082 -1.868306,-0.0208 -2.120656,0.0752 -3.301577,1.25647 -3.256191,3.25703 -1.029764,8.4812 3.614506,8.4812 1.768475,0 2.905501,-0.63268 4.157641,-2.31346 0.559555,-0.7511 0.718202,-1.46327 0.687683,-3.08704 -0.04368,-2.3243 0.507875,-2.38041 0.795082,-0.0809 0.220552,1.76587 -1.011965,4.23656 -2.659664,5.33154 -1.650035,1.09653 -4.427951,1.09784 -6.036835,0.003 z m 170.748035,-0.59654 c 0,-0.59354 0.15875,-1.07916 0.35278,-1.07916 0.19403,0 0.35278,0.38751 0.35278,0.86113 0,0.47361 -0.15875,0.95923 -0.35278,1.07915 -0.20582,0.1272 -0.35278,-0.23152 -0.35278,-0.86112 z m -115.993335,0.2614 c -0.232834,-0.23284 -0.423334,-0.86784 -0.423334,-1.41111 0,-0.95761 -0.05711,-0.98778 -1.869722,-0.98778 -2.095578,0 -2.716389,-0.40938 -2.716389,-1.79125 0,-1.13556 0.557982,-1.6541 2.115033,-1.96551 0.873672,-0.17473 1.273557,-0.0859 1.595632,0.3546 0.381508,0.52174 0.479474,0.52788 0.872201,0.0547 0.560811,-0.67573 1.660415,-0.67638 2.953988,-0.002 0.555756,0.28984 1.212183,0.52699 1.458733,0.52699 0.246545,0 0.72772,0.4265 1.069276,0.94778 l 0.621009,0.94777 0.755731,-0.94777 c 0.415654,-0.52128 0.995835,-0.94778 1.289287,-0.94778 0.293454,0 0.684367,-0.13709 0.868694,-0.30463 0.184326,-0.16755 0.838055,-0.47225 1.452728,-0.67712 0.946118,-0.31534 1.21115,-0.2691 1.727398,0.30135 0.560433,0.61927 0.644186,0.62682 1.034334,0.0933 0.31666,-0.43306 0.720732,-0.52133 1.590368,-0.3474 1.557051,0.31141 2.115033,0.82995 2.115033,1.96551 0,1.38187 -0.620811,1.79125 -2.716389,1.79125 -1.812608,0 -1.869722,0.0302 -1.869722,0.98778 0,0.54327 -0.1905,1.17827 -0.423334,1.41111 -0.591788,0.59178 -10.908767,0.59178 -11.500555,0 z m 11.394722,-1.86972 c 0,-1.33765 -0.08995,-1.45569 -1.727627,-2.26732 l -1.72763,-0.85621 -1.001427,1.12079 c -0.948552,1.06162 -1.707511,1.43838 -1.724773,0.85621 -0.0043,-0.14552 -0.29802,-0.64194 -0.652678,-1.10315 -0.605021,-0.78678 -0.729777,-0.81125 -2.020626,-0.39637 -1.767452,0.56807 -2.610517,1.31702 -2.610517,2.31909 0,1.94138 -0.0055,1.9397 5.95013,1.83501 l 5.515148,-0.0969 z m -10.406945,0.17638 c 0,-0.19402 0.3175,-0.35277 0.705556,-0.35277 0.388056,0 0.705556,0.15875 0.705556,0.35277 0,0.19403 -0.3175,0.35278 -0.705556,0.35278 -0.388056,0 -0.705556,-0.15875 -0.705556,-0.35278 z m -1.01347,-1.99433 c 0.266217,-0.32077 0.960342,-0.78469 1.5425,-1.03094 l 1.05847,-0.44772 -1.042617,-0.39899 c -0.924337,-0.35373 -1.114435,-0.30682 -1.675694,0.41358 l -0.633077,0.81257 -0.625966,-0.80314 c -0.559703,-0.71813 -0.746418,-0.76116 -1.763889,-0.40647 -0.929527,0.32404 -1.137923,0.58419 -1.137923,1.42051 0,1.00299 0.03861,1.02382 1.897083,1.02382 1.334068,0 2.040732,-0.17308 2.381113,-0.58322 z m -3.660835,-0.35597 c 0.242535,-0.0979 0.63941,-0.0979 0.881944,0 0.242535,0.0979 0.0441,0.17794 -0.440972,0.17794 -0.485069,0 -0.683507,-0.0801 -0.440972,-0.17794 z m 19.490972,-0.0846 c 0,-0.83632 -0.208396,-1.09647 -1.137923,-1.42051 -1.017471,-0.35469 -1.204186,-0.31166 -1.763889,0.40647 l -0.625965,0.80314 -0.633078,-0.81257 c -0.558708,-0.71712 -0.754457,-0.76643 -1.666332,-0.41974 l -1.033254,0.39285 1.489943,0.66706 c 0.819467,0.36689 1.489943,0.83358 1.489943,1.0371 0,0.21333 0.821651,0.37002 1.940278,0.37002 1.906146,0 1.940277,-0.018 1.940277,-1.02382 z m -1.499305,0.0846 c 0.242535,-0.0979 0.63941,-0.0979 0.881944,0 0.242535,0.0979 0.0441,0.17794 -0.440972,0.17794 -0.485069,0 -0.683507,-0.0801 -0.440972,-0.17794 z m -67.508221,3.07624 c -1.274424,-0.53776 -2.253586,-2.11186 -2.253586,-3.62287 0,-2.04215 1.493924,-3.45307 3.65621,-3.45307 0.876599,0 1.690008,0.15564 1.807574,0.34587 0.129717,0.20989 -0.410789,0.31868 -1.374798,0.27673 -2.087372,-0.0909 -3.388741,1.01999 -3.372211,2.87848 0.01649,1.8536 1.350279,3.2017 3.167725,3.2017 1.154333,0 2.818278,-1.85853 2.818278,-3.14786 0,-0.59701 0.15875,-1.08547 0.352778,-1.08547 0.447303,0 0.456048,1.44633 0.01574,2.60442 -0.60967,1.60355 -3.205599,2.68233 -4.817716,2.00207 z m 0.27453,-1.99455 c -1.098798,-0.76963 -0.942118,-2.59659 0.274409,-3.19974 0.474236,-0.23513 1.004216,-0.33977 1.177733,-0.23253 0.173518,0.10724 -0.05574,0.37905 -0.509469,0.60403 -1.155155,0.57276 -1.314942,2.18589 -0.250003,2.52389 0.583015,0.18504 0.952897,0.0532 1.399974,-0.49889 0.710127,-0.87697 1.023685,-0.95085 1.023685,-0.24121 0,0.53226 -1.297834,1.60751 -1.940278,1.60751 -0.204697,0 -0.73392,-0.25338 -1.176051,-0.56306 z m 0.999662,-1.51475 c 0,-0.17265 1.42875,-1.46884 3.175,-2.88041 2.614796,-2.11366 3.175,-2.73873 3.175,-3.54262 0,-0.67478 0.316302,-1.20134 1.024597,-1.7057 1.271936,-0.90569 1.797625,-0.92475 1.797625,-0.0652 0,0.36772 0.315061,0.7468 0.705556,0.84892 1.019572,0.26662 0.867664,1.05635 -0.380731,1.97933 -0.714387,0.52817 -1.362523,0.7338 -1.893147,0.60062 -0.633782,-0.15907 -1.504522,0.36394 -4.059258,2.43821 -3.367828,2.73445 -3.544642,2.85052 -3.544642,2.32681 z m 9.348611,-6.03608 c 0.55905,-0.61774 0.568037,-0.70556 0.07221,-0.70556 -0.311472,0 -0.717588,-0.27031 -0.90248,-0.60069 -0.283463,-0.50652 -0.424481,-0.52741 -0.899474,-0.1332 -0.309819,0.25713 -0.563307,0.84494 -0.563307,1.30626 0,1.0761 1.367828,1.15555 2.293055,0.13319 z m 79.727784,5.64573 c -0.38806,-0.16705 -1.14945,-0.3993 -1.69199,-0.5161 -0.98503,-0.21206 -0.98609,-0.21548 -0.74664,-2.40641 0.29632,-2.71129 0.90718,-3.96372 2.36756,-4.85417 4.60709,-2.80911 9.35793,3.34481 5.38968,6.98143 -1.05874,0.97027 -1.50997,1.14307 -2.93218,1.12287 -0.92448,-0.0131 -1.99838,-0.16056 -2.38643,-0.32762 z m 3.84578,-0.49319 c 1.48315,-0.6197 2.32783,-1.80777 2.32783,-3.27416 0,-2.49285 -1.53215,-3.99505 -4.0747,-3.99505 -0.99387,0 -1.56109,0.27357 -2.48697,1.19945 -1.0006,1.0006 -1.19944,1.45676 -1.19944,2.75166 0,0.85373 -0.1853,1.73752 -0.41177,1.96399 -0.31384,0.31384 -0.29286,0.44436 0.0882,0.5488 0.27498,0.0754 1.21434,0.38639 2.08747,0.69115 2.01443,0.70313 2.24279,0.71023 3.66939,0.11416 z m -2.25828,-1.97754 c 0,-0.19403 0.55562,-0.35278 1.23472,-0.35278 0.6791,0 1.23472,0.15875 1.23472,0.35278 0,0.19403 -0.55562,0.35278 -1.23472,0.35278 -0.6791,0 -1.23472,-0.15875 -1.23472,-0.35278 z m -0.0882,-1.66631 c 0.6306,-0.0783 1.66247,-0.0783 2.29306,0 0.63059,0.0783 0.11465,0.14228 -1.14653,0.14228 -1.26118,0 -1.77712,-0.064 -1.14653,-0.14228 z m 0.004,-1.40542 c 0.43883,-0.0844 1.07383,-0.0812 1.41111,0.007 0.33729,0.0883 -0.0218,0.15734 -0.79786,0.15342 -0.77611,-0.004 -1.05207,-0.0762 -0.61325,-0.16054 z m -34.536834,3.48377 c -0.939055,-0.83905 -1.143966,-1.31033 -1.279303,-2.94232 -0.148466,-1.7903 -0.08492,-2.0032 0.807385,-2.70509 1.240067,-0.97544 2.97615,-0.97544 4.216217,0 0.892306,0.70189 0.955851,0.91479 0.807385,2.70509 -0.135336,1.63199 -0.340247,2.10327 -1.279303,2.94232 -0.615001,0.54949 -1.351283,0.99907 -1.636204,0.99907 -0.284921,0 -1.021204,-0.44958 -1.636191,-0.99907 z m 3.188815,-0.62422 c 1.046233,-1.33007 1.300494,-3.12308 0.595464,-4.1991 -0.472133,-0.72054 -0.862143,-0.88039 -2.148102,-0.88039 -1.96172,0 -2.856425,1.0599 -2.499727,2.96127 0.518717,2.76499 2.662251,3.88545 4.052351,2.11822 z m -9.682593,-0.29202 c -1.421215,-2.16905 0.367012,-4.71035 2.573719,-3.65758 1.180532,0.5632 1.424735,1.89494 0.629475,3.4328 -0.724927,1.40185 -2.356912,1.51637 -3.203194,0.22478 z m 2.369552,-0.0796 c 0.907496,-0.82129 0.868694,-2.82544 -0.06043,-3.12033 -0.909288,-0.28859 -1.996613,0.0602 -2.25057,0.72205 -0.344802,0.89854 0.699293,2.94699 1.517237,2.97672 0.08174,0.003 0.438922,-0.25733 0.79375,-0.57844 z m 10.687191,-0.14514 c -0.79526,-1.53786 -0.551056,-2.8696 0.629476,-3.4328 1.456274,-0.69475 2.872648,0.0697 3.022826,1.63156 0.258554,2.68897 -2.491804,4.04539 -3.652302,1.80124 z m 2.194906,0.45181 c 0.587848,-0.37378 1.188166,-2.08358 0.949724,-2.70495 -0.253972,-0.6618 -1.341297,-1.01064 -2.250585,-0.72205 -0.890408,0.28261 -0.963852,2.12848 -0.121712,3.05903 0.646388,0.71425 0.811004,0.75683 1.422559,0.36797 z"
       id="path21"
       inkscape:connector-curvature="0" />
  </g>
</svg>
